<svg xmlns="http://www.w3.org/2000/svg" width="865.76" height="682.89" viewBox="0 0 865.76 682.89"><path d="M498.89,107.24S546.42,154.77,630,175.9c0,0,148.75,40.13,169.87,111.44,0,0,32.19,63.55,8.54,142.86-13.73,46.07-43.52,85.69-83.32,112.65C668.89,581,550.19,640.23,370.55,625.2c-2.74-.23-5.5-.37-8.25-.4-22.15-.22-142-5.69-238.19-95C77.86,486.9,51.17,427,49,363.91c-3.12-90.53,11.38-234.8,122.45-306C171.46,58,335.18-64.39,498.89,107.24Z" fill="#1684A7"/><path d="M498.89,107.24S546.42,154.77,630,175.9c0,0,148.75,40.13,169.87,111.44,0,0,32.19,63.55,8.54,142.86-13.73,46.07-43.52,85.69-83.32,112.65C668.89,581,550.19,640.23,370.55,625.2c-2.74-.23-5.5-.37-8.25-.4-22.15-.22-142-5.69-238.19-95C77.86,486.9,51.17,427,49,363.91c-3.12-90.53,11.38-234.8,122.45-306C171.46,58,335.18-64.39,498.89,107.24Z" fill="#fff" opacity="0.7"/><circle cx="103.24" cy="566.23" r="8.98" fill="#1684A7"/><circle cx="103.24" cy="566.23" r="8.98" opacity="0.2"/><circle cx="164.49" cy="565.77" r="8.98" fill="#1684A7"/><circle cx="164.49" cy="565.77" r="8.98" opacity="0.2"/><path d="M95.37,548.83a5.48,5.48,0,0,1,.16-1.32,4.34,4.34,0,0,1,.24-.72,6.25,6.25,0,0,1,6.94-3.6l32.17,6,29.93-6.16a6,6,0,0,1,1.32-.14,6.18,6.18,0,0,1,5.29,2.88A5.3,5.3,0,0,1,172,547a5.65,5.65,0,0,1-4.33,7.15l-27,6.47h-12.9l-27.65-6.18A5.84,5.84,0,0,1,95.37,548.83Z" fill="#09A599"/><path d="M549.43,359.74l30.21,11.69s9.41-6.76,28.19-13.62l-5.62-75.25-7-6.9-33.31-.59Z" fill="#1684A7"/><ellipse cx="741.24" cy="574.54" rx="25.37" ry="26.8" fill="#9bc6e0"/><ellipse cx="741.24" cy="574.54" rx="25.37" ry="26.8" opacity="0.2"/><ellipse cx="731.54" cy="574.04" rx="25.37" ry="26.8" fill="#9bc6e0"/><ellipse cx="499.01" cy="640.4" rx="25.37" ry="26.8" fill="#9bc6e0"/><ellipse cx="499.01" cy="640.4" rx="25.37" ry="26.8" opacity="0.2"/><circle cx="211.92" cy="540.44" r="24.41" fill="#9bc6e0"/><circle cx="211.92" cy="540.44" r="24.41" opacity="0.2"/><path d="M186.16,189.34s-30.42,7.56-21.9,31.51l94.4,223.81,70.23,12.89,210,132.63V473.44S526.22,479.66,497,467L371.49,391.24l-37.09-4-11.95,11.8s-26.71-.23-35-8.75Z" fill="#91dcf5"/><path d="M579.64,371.43,487.31,336s-14.28-12.2-25.1-3.22l-132.4,43.06,41.68,15.43L497,467s24.41,11.74,41.91,6.45Z" fill="#fff"/><path d="M462.21,332.75,383.56,190.83A12.84,12.84,0,0,0,372,184.22l-185.82,5.12a3.49,3.49,0,0,0-3.07,4.87l37.58,87,66.78,109.15Z" fill="#eee"/><path d="M454.15,335.86l-11.63,3.22-44.09,12.21-34.77,29.47c-44.67,13.12-67.23,8.75-67.23,8.75-8.29-3-32.24-41.91-32.24-41.91-10.82-29.47-8.29-69.07-8.29-69.07.69-34.08,41.91-38,41.91-38l20.95.23,17.16-5.52,13,1.61c24.63,3,30.85,18.65,30.85,18.65l7.14,13.82,18.65,36.59,5.52,10.84Z" fill="#1684A7"/><path d="M298.73,213,302,237.65s-3.91.47-6.21,2.77l30.62,17.27s6.91-13.59,9.44-22.34l-7.83-.46-.46-11Z" fill="#f4b08d"/><path d="M328,234.89s-12.66,2.47-18-9c0,0,14.74,4.18,17.5-2Z" fill="#ee7c58"/><path d="M295.74,240.42s22.1,8.06,27.17,11.28l12.89-16.35a114.69,114.69,0,0,1-9.44,22.34S305,245.71,295.74,240.42Z" fill="#ee7c58"/><path d="M289.06,287.85s15.2,37.53,14.27,57.34l56.65-.93s-7.8-6-25.82-7.56a27.87,27.87,0,0,1-16.29-6.93,24.88,24.88,0,0,1-7.06-10.68,55.47,55.47,0,0,0-3.89-9C303.38,303.7,297,293.75,289.06,287.85Z" opacity="0.2"/><path d="M454.15,336l-11.63,3.23-22.91-12.44c-12.4-8.7-15.75.49-16.09,1.52,2.64-8.82,2.18-20,2.05-22.25l5.52,10.83Z" opacity="0.2"/><polygon points="379.09 290.84 385.1 362 397.51 351.63 413.61 347.06 391.75 344.73 379.09 290.84" opacity="0.2"/><path d="M375.63,311.11c-4.5,1-9.54.75-13.52-1.82s-5.91-7.55-6.23-12.2l0-.44v-.44c0-1.56-.08-4.46-.11-6,0-.56,0-2.06,0-2.6v-.43a1.44,1.44,0,0,1,.86-1.42,2.6,2.6,0,0,1,1-.13l1.73,0c4.61-.05,9.22-.08,13.83,0-4.6.31-9.21.54-13.81.73l-1.73.08h-.43a.65.65,0,0,0-.64.74c0,.77.07,2.24.1,3,.05,1.6.11,4.47.15,6.05,0,.21,0,.64.05.85.39,5.82,2.93,11.14,8.7,13.22a21,21,0,0,0,10.14.86Z" opacity="0.2"/><path d="M360.21,294.07a43.78,43.78,0,0,1,12.66,0,43.78,43.78,0,0,1-12.66,0Z" opacity="0.2"/><path d="M505.27,465.61s23.57,10.62,16.88,32.05a13,13,0,0,1-3.74,5.85c-4.54,4.05-15.73,10.73-40.77,11.84l-30.86,3.91L532,569.64l0,3-98.09-57.79,58.19-7s19.7-2.26,23-17.9C515.09,490,518.39,479.43,505.27,465.61Z" fill="#9bc6e0"/><path d="M505.27,465.61s23.57,10.62,16.88,32.05a13,13,0,0,1-3.74,5.85c-4.54,4.05-15.73,10.73-40.77,11.84l-30.86,3.91L532,569.64l0,3-98.09-57.79,58.19-7s19.7-2.26,23-17.9C515.09,490,518.39,479.43,505.27,465.61Z" opacity="0.2"/><path d="M245.29,488.25h96.87l53.23,32.43s-36.79,20.22-44.16-17.77H229.49Z" fill="#9bc6e0"/><path d="M245.29,488.25h96.87l53.23,32.43s-36.79,20.22-44.16-17.77H229.49Z" opacity="0.2"/><circle cx="205.24" cy="539.98" r="24.41" fill="#9bc6e0"/><ellipse cx="489.31" cy="639.89" rx="25.37" ry="26.8" fill="#9bc6e0"/><path d="M364.73,523.91s20.47,13.87,36.3,0l-5.64-3.23S377.54,529.49,364.73,523.91Z" fill="#9bc6e0"/><path d="M685.33,235.72c-2.56,32.94-40.29,51-40.29,51,5.52,16.58,15.42,63.32,15.42,63.32l-57.1,8.75c-13.59-52-6-143.22-6-143.22C599.91,161,611.19,149,611.19,149c63.09,9,73.45,74.37,73.45,74.37A46.65,46.65,0,0,1,685.33,235.72Z" fill="#09A599"/><path d="M685.33,235.72c-2.56,32.94-40.29,51-40.29,51a37.44,37.44,0,0,1-19.12-22.1s14.51,18.19,29.94,7.13a87.33,87.33,0,0,0,29.35-36.19Z" opacity="0.2"/><path d="M619,259.76l-2.86.6A1.52,1.52,0,0,0,615,262.2c1.41,6,7.13,27.73,16.8,35.91a3.39,3.39,0,0,0,4.82-.45l4.31-5.32a.27.27,0,0,1,.46.29l-3.75,7.5a3.39,3.39,0,0,1-4,1.73c-5.75-1.7-18.34-9.08-20.5-41.29A1.52,1.52,0,0,1,615,259Z" opacity="0.2"/><path d="M623.16,259.76s16.35-21.18,8.52-37.53c0,0-9.44-17.27-5.52-36.84,0,0-.42,20.57,7.43,29.34a25.1,25.1,0,0,1,3.84,5.53A34.54,34.54,0,0,1,641.12,234s7.6-7.14,12.44-3.22c0,0-7.14.23-8.75,6,0,0,6.21-2.07,8.52,3.46,0,0-10.6-4.61-15.43,3.22C637.9,243.41,631,254,623.16,259.76Z" opacity="0.2"/><path d="M649.87,178.48a164.51,164.51,0,0,1,23.26,56.18S680.73,206.8,649.87,178.48Z" opacity="0.2"/><polygon points="623.62 159.83 620.4 182.39 606.58 181.93 619.71 195.52 607.5 233.97 622.93 193.44 615.33 185.85 622.93 185.39 623.62 159.83" opacity="0.2"/><path d="M603.36,358.77s-9.7-45.79-8.19-83.11c0,0,18,55.48,51.87,76.67Z" opacity="0.2"/><path d="M572,364.07H560.27L524.61,350s9.44-91.41,14-119c0,0-40.3,34.08-66.09,13.35l-43.52-27.86,15.89-32.7,27.27,11,21.32,8.59s4.6,2.76,11.28-7.14c0,0,17-31.55,39.83-40.76,0,0,8.52-5.75,17.5-4.83a575.09,575.09,0,0,0-3,93.94S564.22,315.94,572,364.07Z" fill="#09A599"/><path d="M572,364.07H560.27l-10.84-4.33,12.43-84.67S566.52,331.37,572,364.07Z" opacity="0.2"/><path d="M559.15,269.43s-16.81-54.8-13.58-75.75c0,0,2.76-7.14,6-8.29l-8.06.23s-2.76-15-2.07-26.25C541.42,159.37,533.13,214.86,559.15,269.43Z" opacity="0.2"/><path d="M538.66,231l-.46-16.12s-35.69,35.92-58.72,26.71c0,0-19.4-5.33-36.05-29.94a9.15,9.15,0,0,1-1.47-6.37l3-21.49-15.89,32.7,43.52,27.86S492.15,266.44,538.66,231Z" opacity="0.2"/><path d="M504.81,196.21C500.66,211,494,210.71,494,210.71c-10.5-.41-19.9-13.23-21.78-16l21.32,8.59S498.13,206.11,504.81,196.21Z" opacity="0.2"/><path d="M513.1,203.12s5.06-19.35,19.57-29A79.17,79.17,0,0,1,513.1,203.12Z" opacity="0.2"/><path d="M561.86,275.07l33.31.59s-.79-101.79,16-126.65c0,0-7.14-1.62-12.21-.46l-34.07,1.84-2.77.23S553.06,190,561.86,275.07Z" fill="#1684A7"/><path d="M561.86,275.07s-3.1-29.06-3.48-50.74c0,0,6.76-8.09,23.11,1.12,0,0,5.79,3.5,15.44-.32,0,0-2.11,29.6-1.76,50.53Z" fill="#fff" opacity="0.2"/><path d="M235.87,94.9a5.32,5.32,0,0,1,0,.69,7.13,7.13,0,0,1-7.1,6.44H141.57a2,2,0,0,0-1.95,2V548.74a5.29,5.29,0,0,1-5.29,5.29H132a5.28,5.28,0,0,1-5.28-5.29v-454a7,7,0,0,1,7-7h95a7.14,7.14,0,0,1,7.14,7.14Z" fill="#09A599"/><path d="M235.83,95.59l-97.44.21a6.83,6.83,0,0,0-6.82,6.84L132,554h0a5.28,5.28,0,0,1-5.28-5.29v-454a7,7,0,0,1,7-7h95a7.14,7.14,0,0,1,7.14,7.14A5.32,5.32,0,0,1,235.83,95.59Z" opacity="0.2"/><path d="M100,565.77h5.07a0,0,0,0,1,0,0v15a2.53,2.53,0,0,1-2.53,2.53h0a2.53,2.53,0,0,1-2.53-2.53v-15A0,0,0,0,1,100,565.77Z" fill="#09A599"/><circle cx="103.01" cy="580.97" r="8.98" fill="#1684A7"/><circle cx="102.55" cy="580.74" r="1.84" fill="#fff" opacity="0.2"/><path d="M160.57,566h5.07a0,0,0,0,1,0,0v15a2.53,2.53,0,0,1-2.53,2.53h0a2.53,2.53,0,0,1-2.53-2.53V566a0,0,0,0,1,0,0Z" fill="#09A599"/><circle cx="163.57" cy="581.2" r="8.98" fill="#1684A7"/><circle cx="163.11" cy="580.97" r="1.84" fill="#fff" opacity="0.2"/><rect x="197.19" y="116.31" width="49.51" height="68.39" rx="8.11" fill="#eee"/><path d="M243.7,149.7v14.79a13.53,13.53,0,0,1-.15,2,14.21,14.21,0,0,1-14.07,12.2H211.94a11.67,11.67,0,0,1-11.66-11.45L200,149.7Z" fill="#1684A7"/><path d="M243.55,166.51a14.21,14.21,0,0,1-14.07,12.2H211.94a11.67,11.67,0,0,1-11.66-11.45L200,149.7h9c.15,4.45,1.62,15.52,12.44,16.81Z" fill="#fff" opacity="0.2"/><circle cx="231.03" cy="157.99" r="3.22" opacity="0.2"/><circle cx="218.6" cy="155.68" r="2.3" opacity="0.2"/><rect x="232.64" y="125.98" width="4.37" height="14.74" rx="2.19" fill="#fff" opacity="0.4"/><circle cx="234.83" cy="144.4" r="2.07" fill="#fff" opacity="0.4"/><polygon points="159.52 271.31 143.76 229.13 155.28 219.69 168.56 256.76 159.52 271.31" fill="#9bc6e0"/><polygon points="177.38 243.18 168.56 256.76 155.28 219.69 164.72 219.23 177.38 243.18" fill="#9bc6e0"/><polygon points="177.38 243.18 168.56 256.76 155.28 219.69 164.72 219.23 177.38 243.18" opacity="0.2"/><path d="M266.26,278.41s-7.14,42.83,16.58,63.09C282.84,341.5,270,320.55,266.26,278.41Z" fill="#fff" opacity="0.2"/><path d="M442.18,189.3l-9.64,19.8s-5.56,1.85-21-8.29c0,0-9.91.46-10.6-2.53,0,0,.46-3.22,5.3-4.14,0,0-7.89-1.11-11.44-4.19a4.25,4.25,0,0,1-1.69-3.18s1.61-4.14,12.64-.7l0,0-.09,0c-1.18-.49-8.95-3.84-11.39-8.28a5.09,5.09,0,0,1-.67-3.41s.24-6,19.81,4.84c0,0-10.54-9.25-9.75-15.14a4,4,0,0,1,.77-1.9s2.07-5.53,18.88,14.28C423.3,176.41,437.11,176.64,442.18,189.3Z" fill="#f4b08d"/><path d="M415.61,203s9.07,4.23,15.29.09l11.28-13.82-9.64,19.8S424.5,209.39,415.61,203Z" fill="#ee7c58"/><path d="M413.4,179.17c-20.73-5.76-18.88-1.38-18.88-1.38l-.26,0a5.09,5.09,0,0,1-.67-3.41S393.83,168.35,413.4,179.17Z" fill="#ee7c58"/><path d="M423.3,176.41c-12.86-10-17.89-12-19.65-12.38a4,4,0,0,1,.77-1.9S406.49,156.6,423.3,176.41Z" fill="#ee7c58"/><path d="M405.77,186.07c-8.54-.7-10.93,3.86-10.93,3.86l0,0a4.25,4.25,0,0,1-1.69-3.18S394.74,182.63,405.77,186.07Z" fill="#ee7c58"/><path d="M418.23,174.56c-4.15-.9-5.51.23-2.89,4,.54.78,1.14,1.52,1.75,2.26l-.1-.08a9.85,9.85,0,0,1,4.24,5.54,14.6,14.6,0,0,1,.56,2.28,3,3,0,0,0,.16.86c1.19,3.36,5.25,6.45,8.1,8.5.52.34,1,.7,1.54,1.05-3.66-2.05-7.81-4.69-9.88-8.45a4.63,4.63,0,0,1-.59-1.93v.07c-.08-.36-.15-.73-.23-1.09a11.13,11.13,0,0,0-2.71-5.1,7.19,7.19,0,0,0-1.54-1.22,27.9,27.9,0,0,1-1.76-2.4c-2.58-3.95-1.12-5.72,3.34-4.29Z" fill="#ee7c58"/><path d="M411.79,195.75a6.63,6.63,0,0,1-.66-3.2,17.78,17.78,0,0,1,2.14-7.83c.27-.47.53-.95.82-1.41-.15.53-.33,1-.51,1.54-1.05,3.31-2.5,7.43-1.79,10.9Z" fill="#ee7c58"/><rect x="298.96" y="168.12" width="43.75" height="60.79" rx="21.87" fill="#f4b08d"/><path d="M292.28,196.44h9.9a0,0,0,0,1,0,0v18a0,0,0,0,1,0,0h-9.9a9,9,0,0,1-9-9v0A9,9,0,0,1,292.28,196.44Z" fill="#f4b08d"/><path d="M348,189.18c-.82,3.44-2.27,4.07-2.27,4.07-4.83,4.38-6.91-6.58-6.91-6.58-2.53-9.25-9.44-5.36-9.44-5.36-3.87-1.26-5.14,2.68-5.56,5.62a12.2,12.2,0,0,1-8.4,10.22,27.33,27.33,0,0,1-11.13.48c8.28-9.25,12.89-6.33,12.89-6.33-6.68-6.33-14.74,4.87-14.74,4.87-1.93-.91-1.06-3.31-.93-3.62a11.39,11.39,0,0,1-3.62,4.78,6.58,6.58,0,0,1-1.89,1c-13.82,2.19-15-11.2-15-11.2-3.69-19,17.27-27.52,17.27-27.52.92-2.68-2.3-3.16-2.3-3.16,6-2.44,10.82,1.94,10.82,1.94,15.89-7.3,37.07-4.87,40.52,13.88C348.92,181,348.68,186.18,348,189.18Z" fill="#523232"/><path d="M288,197.82s-4.93-11.15,1.52-18.94c0,0-.23,7.55,3,10.47a10.62,10.62,0,0,1,3.46,9S294.54,199.23,288,197.82Z" opacity="0.2"/><path d="M348,189.18c-.82,3.44-2.27,4.07-2.27,4.07-4.83,4.38-6.91-6.58-6.91-6.58-2.53-9.25-9.44-5.36-9.44-5.36-3.87-1.26-5.14,2.68-5.56,5.62a12.2,12.2,0,0,1-8.4,10.22,27.33,27.33,0,0,1-11.13.48c8.28-9.25,12.89-6.33,12.89-6.33-6.68-6.33-14.74,4.87-14.74,4.87-1.93-.91-1.06-3.31-.93-3.62a11.39,11.39,0,0,1-3.62,4.78l-.28-.24s-.92-31.36,14.5-22.84c0,0,10.46-13.38,22.23-1.71a20.1,20.1,0,0,1,5,8.55C340.51,185,343.11,190.8,348,189.18Z" opacity="0.2"/><path d="M303.1,164c1.79-2.21,5.09-1.4,7.25-.2l-.32.1c1.08-2.16,3.51-4.09,6-2.89-2.54-.81-4.64,1.15-5.65,3.3a12.87,12.87,0,0,0-2.83-1.16,4.66,4.66,0,0,0-4.42.85Z" opacity="0.2"/><path d="M326.36,257.69a29.89,29.89,0,0,1,2.46,4.3c4.21,9,6.13,18.92,7.26,28.75.13,1.65.29,3.29.41,4.94-.43-3.28-.84-6.55-1.38-9.81a119.28,119.28,0,0,0-4.69-19.18,47.32,47.32,0,0,0-4.06-9Z" opacity="0.2"/><path d="M396.61,350.2c-.31,1.27-1.8,3.52-5.55,7.42h0c.15-.09,4.08-2.24,3.71.44a3,3,0,0,1-.11.51,5.21,5.21,0,0,1-1.48,2.42c-3.08,2.87-14,12.27-27.3,15.12,0,0-10.29-14.12-5.91-31.85,0,0,8.45-8,11.55-6a3,3,0,0,1,1.11,2.55L371,345.42s11-10.14,18.56-9.86a2.39,2.39,0,0,1,.85.18,2.51,2.51,0,0,1,1.29,3.53,38.47,38.47,0,0,1-6.6,8.16c.28-.27,1.52-1.43,3.07-2.65,2.74-2.14,6.48-4.43,7.82-2.28a3,3,0,0,1,.34.84s1.15,1.38-3.22,5.76C393.27,349.05,397.23,347.7,396.61,350.2Z" fill="#f4b08d"/><path d="M390.44,335.74c-14.69,11.31-19,14.46-21.25,13.13-5.45-3.27,1.23-9.61,2.34-10.61a3,3,0,0,1,1.11,2.55L371,345.42s11-10.14,18.56-9.86A2.39,2.39,0,0,1,390.44,335.74Z" fill="#ee7c58"/><path d="M396,342.5a108.24,108.24,0,0,1-12.79,8.9c-3,.67,2-4,5-6.62C390.94,342.64,394.68,340.35,396,342.5Z" fill="#ee7c58"/><path d="M396.61,350.2a79.73,79.73,0,0,1-11.07,6.5l7.6-7.6C393.27,349.05,397.23,347.7,396.61,350.2Z" fill="#ee7c58"/><path d="M394.78,358.06c-6.13,4.07-6.48,3-6.48,3-1.15-.46,2.76-3.45,2.76-3.45h0C391.22,357.53,395.15,355.38,394.78,358.06Z" fill="#ee7c58"/><path d="M358.94,356.12s6.33,13,21.65,13.92c0,0-4.46,3.88-14.74,6.11C365.85,376.15,359.4,366.25,358.94,356.12Z" fill="#ee7c58"/><path d="M360,344.26l-13.52.54s-2.83,23.41,7.53,37.46L369.3,380a.16.16,0,0,0,.1-.28C367.54,377.88,356,365.47,360,344.26Z" fill="#1684A7"/><path d="M360,344.26l-13.52.54s-2.83,23.41,7.53,37.46L369.3,380a.16.16,0,0,0,.1-.28C367.54,377.88,356,365.47,360,344.26Z" fill="#fff" opacity="0.4"/><path d="M213,336.91c-7.68,4.76-11.94-1.63-11.94-1.63l-17.27-33.84c-5.76-14.28,3.91-16.81,3.91-16.81l.41-.17a12.45,12.45,0,0,1,5.7-.83c-1.28,1.58-1.87,4.26.34,8.72Z" fill="#9bc6e0"/><path d="M213,336.91c-7.68,4.76-11.94-1.63-11.94-1.63l-17.27-33.84c-5.76-14.28,3.91-16.81,3.91-16.81l.41-.17a12.45,12.45,0,0,1,5.7-.83c-1.28,1.58-1.87,4.26.34,8.72Z" opacity="0.2"/><path d="M245.25,409.09a11.85,11.85,0,0,1-15.66-6.58l-.17-.45-13-34.19a15.61,15.61,0,0,1,5.26-18.12c.41-.3.84-.59,1.29-.88l11.75-9.67a7,7,0,0,1,9.1-.68l-.06.32s-5.36-.33-13.88,8.88l-6,6.45s-3.38,4,2.91,14.21Z" fill="#9bc6e0"/><path d="M245.25,409.09a11.85,11.85,0,0,1-15.66-6.58l-.17-.45-13-34.19a15.61,15.61,0,0,1,5.26-18.12c.41-.3.84-.59,1.29-.88l11.75-9.67a7,7,0,0,1,9.1-.68l-.06.32s-5.36-.33-13.88,8.88l-6,6.45s-3.38,4,2.91,14.21Z" opacity="0.2"/><path d="M177.38,243.18s5.07-2.53,10.83,3.69l85.42,75.75,20.26,58.95s3,6.67-5.29,19.34l-22.49,39.95-7.5,1.28,30.45-53.67-19.8-64Z" fill="#9bc6e0"/><path d="M177.38,243.18s5.07-2.53,10.83,3.69l85.42,75.75,20.26,58.95s3,6.67-5.29,19.34l-22.49,39.95-7.5,1.28,30.45-53.67-19.8-64Z" opacity="0.2"/><path d="M352,396.3c-7.51-.93-10.67,9.44-10.67,9.44l-4.15,10.36c-3.45,8.75-.08,14.5-.08,14.5v0l-5.61-2.92A10.08,10.08,0,0,1,327,414.48l9.44-17.72a6.89,6.89,0,0,1,8.45-3.24l7.06,2.57Z" fill="#9bc6e0"/><path d="M352,396.3c-7.51-.93-10.67,9.44-10.67,9.44l-4.15,10.36c-3.45,8.75-.08,14.5-.08,14.5v0l-5.61-2.92A10.08,10.08,0,0,1,327,414.48l9.44-17.72a6.89,6.89,0,0,1,8.45-3.24l7.06,2.57Z" opacity="0.2"/><path d="M455.54,496.74a6.54,6.54,0,0,1-7.84.1l-39.39-28.78a6.36,6.36,0,0,1-2.32-7l7.78-25.22a9.36,9.36,0,0,1,15.08-4.3s-5.32,2.08-8.78,11.75l-6.44,19.35s-2.07,5.75,7.14,11.28Z" fill="#9bc6e0"/><path d="M455.54,496.74a6.54,6.54,0,0,1-7.84.1l-39.39-28.78a6.36,6.36,0,0,1-2.32-7l7.78-25.22a9.36,9.36,0,0,1,15.08-4.3s-5.32,2.08-8.78,11.75l-6.44,19.35s-2.07,5.75,7.14,11.28Z" opacity="0.2"/><path d="M531.29,411.5,532,572.68l-98.09-57.79,5.86-.71,52.32-6.28a31.07,31.07,0,0,0,14.51-5.58c19.77-14.22.3-35.33.3-35.33L432.5,403.9l-.53-.53a45,45,0,0,0-23.78-11.92l-72-12.21a11.14,11.14,0,0,0-12,6.4l-21.28,47-44.25,9.46,30.44-53.67-19.8-64-91.88-81.28-22.56,35.46,74.81,169.85,3.41,7.73,7,15.84-46.51,32v33.62a10.59,10.59,0,1,0,21.17,0V524.09L480.4,610.67v25.45a10.48,10.48,0,0,0,21,0V617.81l7.14-3.68,21.4-8.75.47,15.88,11.74,5.53v-22.1l205.72-236.5C616.44,302.78,531.29,411.5,531.29,411.5ZM406,461.05l7.77-25.22a9.37,9.37,0,0,1,15.09-4.31l42.28,35.13a8,8,0,0,1,.72,11.58l-15.37,17.63a6.4,6.4,0,0,1-.93.88,6.55,6.55,0,0,1-7.85.1l-39.38-28.78A6.34,6.34,0,0,1,406,461.05Zm-79-46.57,9.43-17.72a6.91,6.91,0,0,1,8.46-3.24l7.06,2.57,46,16.77a9.4,9.4,0,0,1,5.8,11.47l-7.2,24.57a9.4,9.4,0,0,1-13.35,5.69l-46.13-24-5.62-2.91A10.09,10.09,0,0,1,327,414.48Zm-125.9-79.2-17.27-33.84c-5.75-14.28,3.92-16.81,3.92-16.81l.4-.17a12.45,12.45,0,0,1,5.7-.83,12.91,12.91,0,0,1,7.45,3.21l23.29,20.58c7.59,9.21,1.6,16.12,1.6,16.12L217.67,333a23.17,23.17,0,0,1-4.63,3.93C205.36,341.67,201.1,335.28,201.1,335.28Zm28.49,67.23-.17-.45-13-34.19a15.61,15.61,0,0,1,5.28-18.11c.4-.31.83-.6,1.29-.89l11.74-9.67a7,7,0,0,1,9.1-.69,14.52,14.52,0,0,1,3.33,3.45l14.73,32.47s3.69,10.59-1.6,17.49l-10.15,13.37a11.88,11.88,0,0,1-20.54-2.78ZM501.12,601.92,214.45,511.43l53.88-44.9,29.48-4.6L518.62,595Z" fill="#9bc6e0"/><polygon points="502.74 597.09 222.28 510.51 268.33 466.53 214.46 511.43 501.13 601.92 518.63 595.01 514.25 592.25 502.74 597.09" fill="#9bc6e0"/><polygon points="502.74 597.09 222.28 510.51 268.33 466.53 214.46 511.43 501.13 601.92 518.63 595.01 514.25 592.25 502.74 597.09" opacity="0.2"/><path d="M780.89,388.24l1.38,181.22-229.8,61.71c0-24.87-10.36-26.48-10.36-26.48V418.41S590,355.09,667.83,353.47C667.83,353.47,739.21,351.4,780.89,388.24Z" fill="#9bc6e0"/><path d="M780.89,388.24l1.38,181.22-229.8,61.71c0-24.87-10.36-26.48-10.36-26.48V418.41S590,355.09,667.83,353.47C667.83,353.47,739.21,351.4,780.89,388.24Z" opacity="0.2"/><path d="M552.47,631.17l-10.36-4.38v-22.1S552.47,606.53,552.47,631.17Z" fill="#9bc6e0"/><path d="M542.11,604.69c75.81-20.1,153.5-39.69,229.73-58.1l7.44-1.77-7.39,2c-75.83,20-153.52,39.6-229.78,57.9Z" fill="#fff"/><path d="M574.81,425.55V448.8s127.1,19.11,191.8-34.77V397.45S682.57,336,574.81,425.55Z" opacity="0.2"/><path d="M574.81,425.55s94.87-79,191.8-23.26v-4.84S680.5,336,574.81,425.55Z" opacity="0.2"/><path d="M574.81,448.8l-.2-5.65s100.81,16.51,191.88-39.46l.12,10.34S716.88,464.92,574.81,448.8Z" opacity="0.2"/><rect x="557.31" y="78.78" width="41.45" height="56.41" rx="20.72" fill="#f4b08d"/><path d="M574,134.91s1.5,11.33-9.09,15.48c0,0-1.12,9.8,1.23,16.85a9.67,9.67,0,0,0,9.19,6.63h15.91a5.71,5.71,0,0,0,4.49-2.19c3.26-4.14,9.64-13.35,8.31-20.35a3.37,3.37,0,0,0-3.13-2.68l-1.93-.1-1.15-19.12-5.75-1.84Z" fill="#f4b08d"/><path d="M574,134.91s10.48,1.66,16.93-4.09c0,0-.76,17.59-22.72,17.77A15.11,15.11,0,0,0,574,134.91Z" fill="#ee7c58"/><path d="M577.34,85.92s1,15.88,21.33,22.56l.08,6.56-.92,14.39L599,148.55s8.64-1.27,25.35,3.45c0,0,15.41-13.82-2.55-28.78,0,0-6-3.92-1.61-8.29,0,0,19.34-24.87-8.06-31.55,0,0-.46-24.87-36.84-17.27,0,0-17.77,1.91-17.42,19.29a8,8,0,0,1-6,8l-.53.12s-14.74,2.77-8.29,16.81a28.27,28.27,0,0,1,5,10,9.32,9.32,0,0,1-4.53,10.24c-5.1,2.9-12.31,9.63-2.75,22,0,0,2.27,3,7.35,1.13,0,0,7.16-3.89,14.06-3l2.77-.23S575,147.06,574,134.91c0,0-16-2.48-16.69-19.87V98.92S559.84,81.77,577.34,85.92Z" fill="#523232"/><path d="M574.58,88.45s-15.92.92-17.29,14.16l0-3.69s2.76-17.38,20-13c0,0,1,16.11,21.33,22.56l.07,2.75S585.86,111.93,574.58,88.45Z" fill="#ee7c58"/><path d="M560.3,91.44s4.84-8.75,17-5.52c0,0,1.22,16.57,21.33,22.56v2.75l2.53-.26s7-.25,9,6.23c0,0,11.15-15.86-3.82-24.15,0,0,3-3.68,9.44,3.69,0,0,5.07-6.91-7.36-8.29,0,0-.47-13.59-11.52-13.59,0,0,5.3,6.45,4.84,11.75C601.75,86.61,579.18,58.74,560.3,91.44Z" opacity="0.2"/><path d="M557.47,97.86s-10.58,1.4-8.34,13.1a16.27,16.27,0,0,0,1.47,4.22,14.75,14.75,0,0,1-2,16.79s-12.82,8.61-9.29,18.23c0,0,1.43,5.91,8.81,3.39,0,0,7.62-4.35,14.06-3l2.77-.23s10.82-4,9.09-15.48c0,0-16-2.25-16.69-19.87v-13.6A17.2,17.2,0,0,1,557.47,97.86Z" opacity="0.2"/><path d="M597.83,129.43,599,148.55a71.54,71.54,0,0,1,12.55.57s14-11.09-1.72-24.6c0,0-3.31,5.12-8.11,4.9Z" opacity="0.2"/><path d="M624.33,152l-5-1.27c14.2-10.58,0-29.62,0-29.62s6.94,5.08,8.92,9.81C628.32,130.92,635.17,141,624.33,152Z" opacity="0.2"/><path d="M601.7,129.42l-10.77.24L590,111.33l11.2-.36a9.24,9.24,0,0,1,9.53,9.23h0A9.23,9.23,0,0,1,601.7,129.42Z" fill="#f4b08d"/><path d="M187.65,457.45a32.83,32.83,0,0,1-8.78-1.28c-.21-.05-22.92-5.83-23.61-45.12,0-.24-3.36-28.91,11.11-45.19,6.64-7.47,16-11.25,27.78-11.25h.23c.73-.14,8.34-1.35,28.3,1.27A1578.19,1578.19,0,0,0,220,193.48a.48.48,0,0,1,1-.07A1583.81,1583.81,0,0,1,223.63,356c18.76,2.52,48.08,8.38,92.27,21.41.42.14,39.74,13.07,55.22-8.19a.49.49,0,0,1,.67-.11.48.48,0,0,1,.1.67c-15.89,21.83-55.87,8.68-56.27,8.54-44.11-13-73.35-18.85-92-21.37-.57,15.53-1.44,31.46-2.67,47.44,0,.34-1.66,35.79-19.09,48.49A23.52,23.52,0,0,1,187.65,457.45Zm6.5-101.89c-11.51,0-20.61,3.68-27.06,10.93-14.19,16-10.91,44.21-10.88,44.49.68,38.55,22.67,44.21,22.89,44.26,8.59,2.39,16,1.34,22.16-3.12C218.33,439.7,220,404.69,220,404.34c1.24-16,2.11-31.95,2.68-47.51-20.67-2.73-28-1.31-28.12-1.28h-.37Z" fill="#09A599"/><rect x="218.6" y="102.03" width="7.37" height="19.34" rx="3.68" fill="#09A599"/><rect x="218.6" y="102.03" width="7.37" height="19.34" rx="3.68" opacity="0.2"/><rect x="216.53" y="180.09" width="7.83" height="16.58" rx="3.91" fill="#09A599"/><rect x="216.53" y="180.09" width="7.83" height="16.58" rx="3.91" opacity="0.2"/><path d="M172,561.35a6.24,6.24,0,0,1-.17,1.41,6.41,6.41,0,0,1-.23.78,6.18,6.18,0,0,1-6.95,3.85l-32.17-6.45-29.92,6.6a6.06,6.06,0,0,1-6.62-2.93,5.71,5.71,0,0,1-.54-1.27,6.1,6.1,0,0,1,4.32-7.67l27-6.93h12.89l27.65,6.63A6.14,6.14,0,0,1,172,561.35Z" fill="#09A599"/><path d="M172,561.35a6.24,6.24,0,0,1-.17,1.41,6.41,6.41,0,0,1-.23.78,6.18,6.18,0,0,1-6.95,3.85l-32.17-6.45-29.92,6.6a6.06,6.06,0,0,1-6.62-2.93,5.71,5.71,0,0,1-.54-1.27,6.1,6.1,0,0,1,4.32-7.67l27-6.93h12.89l27.65,6.63A6.14,6.14,0,0,1,172,561.35Z" opacity="0.2"/><path d="M171.6,563.54a6.18,6.18,0,0,1-6.95,3.85l-32.17-6.45-29.92,6.6a6.06,6.06,0,0,1-6.62-2.93L133.86,557Z" opacity="0.2"/><polygon points="439.9 514.27 433.89 514.88 304.26 437.29 233.04 456.22 229.63 448.49 302.87 432.68 439.75 514.18 439.9 514.27" opacity="0.2"/></svg>