<svg xmlns="http://www.w3.org/2000/svg" id="a" width="865.76" height="682.89" viewBox="0 0 865.76 682.89">
  <g id="b">
    <path d="M518.49,587.57c86.63-45.6,154.76-115.33,194.33-196.66,37.25-76.55,78.05-178.02,56.14-218.29C731.73,104.08,163.98-4.92,100.65,57.25c-63.33,62.16,190.72,557.61,298.14,564.44,36.85,2.36,79.56-13.03,119.7-34.11Z" fill="#1684A7"></path>
    <path d="M518.49,587.57c86.63-45.6,154.76-115.33,194.33-196.66,37.25-76.55,78.05-178.02,56.14-218.29C731.73,104.08,163.98-4.92,100.65,57.25c-63.33,62.16,190.72,557.61,298.14,564.44,36.85,2.36,79.56-13.03,119.7-34.11Z" fill="#fff" opacity=".7"></path>
  </g>
  <g id="c">
    <polyline points="105.55 157.12 122.56 157.12 131.52 131.62 140.03 174.14 148.07 117.29 156.14 163.39 164.2 141.91 171.79 155.34 187.92 155.34 194.63 83.27 203.58 207.7 212.09 131.17 219.25 174.58 227.75 155.34 433.2 155.34 440.81 186.68 449.76 126.69 456.92 168.32 464.98 134.75 473.49 155.34 487.36 155.34 496.32 167.88 504.83 124.91 512.43 205.91 520.94 90.43 528.55 167.43 537.49 122.21 544.66 154.89 560.33 154.89" fill="none" opacity=".2" stroke="#263238" stroke-linecap="round" stroke-linejoin="round"></polyline>
    <polyline points="105.55 308.39 122.56 308.39 131.52 282.88 140.03 325.4 148.07 268.55 156.14 314.64 164.2 293.17 171.79 306.6 187.92 306.6 194.63 234.54 203.58 358.96 212.09 282.43 219.25 325.85 227.75 306.6 433.2 306.6 440.81 337.93 449.76 277.94 456.92 319.58 464.98 286 473.49 306.6 487.36 306.6 496.32 319.13 504.83 276.16 512.43 357.18 520.94 241.69 528.55 318.68 537.49 273.47 544.66 306.15 560.33 306.15" fill="none" opacity=".2" stroke="#263238" stroke-linecap="round" stroke-linejoin="round"></polyline>
  </g>
  <g>
    <g>
      <path d="M301.71,435.27c-46.58,0-77.96-17.45-84.72-47.53-7.76-34.8,20.81-87.89,102.05-122.17,154.11-65.04,309.42-38.26,357.78,27.58,8.57,11.49,15.16,24.33,19.49,38l-12.64,3.88c-3.9-12.25-9.83-23.76-17.55-34.05-21.83-29.7-70.54-51.24-130.34-57.45-67.33-7.1-142.5,5.06-211.66,34.25-53.69,22.67-103.34,66.77-94.28,107.14,5.62,25.03,35.28,38.82,79.38,37.05,43.15-1.8,90.96-11.02,142.06-27.41l4.04,12.59c-52.23,16.74-101.21,26.16-145.55,27.95-2.7,.12-5.4,.17-8.06,.17Z" fill="#263238" stroke="#263238" stroke-linecap="round" stroke-linejoin="round"></path>
      <path d="M350.04,364.9s13.15,39.44,50.18,64.53c42.25,28.18,90.06,46.95,140.2,55.03,53.37,8.37,77.64,5.19,89.62-11.55,11.99-16.74,29.87-52.98,8.76-130.65-21.12-77.67-28.28-72.5-28.28-72.5-2.71-13.34-9.37-25.56-19.13-35.06-16.32-15.93-45.4-26.29-45.4-26.29,0,0-12.34,14.74-38.24,14.74s-56.16-10.76-75.29-9.95c-19.13,.81-44.21,26.29-63.34,87.23-19.13,60.95-19.08,64.47-19.08,64.47Z" fill="#1684A7"></path>
      <path d="M594.6,436.56c1.97-4.92,2.95-8.85-2.95-18.63-5.9-9.78-25.56-26.55-27.53-42.28-1.97-15.73-2.95-27.53,3.94-18.63,6.89,8.9,30.48,50.14,33.43,24.58,2.95-25.56-23.6-51.13-25.57-57.03-1.97-5.9,35.4,0,30.48-15.73-4.92-15.73-27.53-16.71-33.43-30.48-5.9-13.77-5.9-20.65-11.8-24.58-4.43-2.95-48.24-25.34-75.43-32.61-4.21-.65-8.43-1.41-12.59-2.2-2.4-.29-4.83,.16-6.97,1.29,0,0,11.43,23.68,19.3,30.56,7.87,6.88,30.48,6.88,28.51,17.7-1.97,10.82-.98,37.36,8.85,50.14,9.83,12.78,21.63-1.96,12.78,48.14-8.85,50.09,0,66.86,2.95,73.74,2.95,6.88,6.88,23.6-16.71,25.56-14.63,1.23-16.04,6.97-13.59,11.63,10.51,2.73,21.26,5,32.16,6.71,41.68,6.54,65.62,6.02,79.81-2.47,.06-2.49-.65-4.94-2.03-7.02-7.87-12.81-25.56-33.46-23.6-38.37Z" fill="#fff" opacity=".58"></path>
      <path d="M410.74,255.64c-1.26,11.38-26.96,38.24-45.12,55.9-15.57,50.25-15.57,53.35-15.57,53.35,0,0,13.15,39.44,50.18,64.53,20.4,13.67,42.21,25.12,65.04,34.16-2.17-6.01-6.13-13.17-13.2-17.2-13.77-7.87-22.62-21.63-32.45-33.43-9.83-11.8-15.73-8.85-23.6-17.7-7.87-8.85,0-35.39,12.79-39.33,12.79-3.94,11.79-15.73,13.76-28.51,1.97-12.78,16.79-44.18,27.53-51.13,10.75-6.96,14.75-31.46,14.75-31.46,3.52-11.44,1.82-22.14-4.49-28.43-10.43-2-20.08-3.6-27.87-3.28-13.7,.73-19.78,24.83-21.75,42.53Z" fill="#fff" opacity=".58"></path>
      <path d="M350.04,364.9s13.15,39.44,50.18,64.53c42.25,28.18,90.06,46.95,140.2,55.03,53.37,8.37,77.64,5.19,89.62-11.55,11.99-16.74,29.87-52.98,8.76-130.65-21.12-77.67-28.28-72.5-28.28-72.5-2.71-13.34-9.37-25.56-19.13-35.06-16.32-15.93-45.4-26.29-45.4-26.29,0,0-12.34,14.74-38.24,14.74s-56.16-10.76-75.29-9.95c-19.13,.81-44.21,26.29-63.34,87.23-19.13,60.95-19.08,64.47-19.08,64.47Z" fill="none" stroke="#263238" stroke-linecap="round" stroke-linejoin="round"></path>
      <path d="M512.59,246.65s12.69,14.64,25.99,28.35c7.2,7.42,19.5,39.58,14.77,62.03-4.74,22.45-8.28,53.77,1.18,70.9,9.46,17.13,7.69,36.63,17.73,49.04,10.05,12.41,22.45,13.59,23.63,25.4" fill="none" stroke="#263238" stroke-linecap="round" stroke-linejoin="round"></path>
      <path d="M542.71,279.5s12.02,5.82,17.45,12.42c6.6,8.18,15.74,13.91,25.98,16.29,12.02,2.72,22.1,12.42,24.84,21.32" fill="none" stroke="#263238" stroke-linecap="round" stroke-linejoin="round"></path>
      <path d="M594.66,378.37c-.39-3.49-6.21-15.53-15.12-22.48-8.91-6.96-10.08-15.53-13.18-20.54-3.11-5.02-12.02-5.82-12.02-5.82" fill="none" stroke="#263238" stroke-linecap="round" stroke-linejoin="round"></path>
      <path d="M548.53,376.05s1.16,5.43,15.9,14.35c14.74,8.91,17.08,20.54,20.54,27.14" fill="none" stroke="#263238" stroke-linecap="round" stroke-linejoin="round"></path>
      <path d="M573.73,398.53s1.94,12.42,4.25,17.84" fill="none" stroke="#263238" stroke-linecap="round" stroke-linejoin="round"></path>
      <path d="M554.53,407.94s-3.28,1.83-4.05,24.7c-.54,15.24,2.93,30.35,10.08,43.82" fill="none" stroke="#263238" stroke-linecap="round" stroke-linejoin="round"></path>
      <path d="M560.16,421.01c2.28,5.3,5.28,10.26,8.91,14.74,6.21,7.76,24.42,14.35,27.95,15.9" fill="none" stroke="#263238" stroke-linecap="round" stroke-linejoin="round"></path>
      <path d="M532.63,269.05s-2.33,5.82-3.48,19.39c-1.15,13.57,4.66,18.99,4.66,18.99" fill="none" stroke="#263238" stroke-linecap="round" stroke-linejoin="round"></path>
      <path d="M447.94,216.92s6.02,21.54-2.59,50.82c-8.62,29.28-39.61,54.25-53.38,69.75-13.77,15.5-20.67,36.18-14.64,49.95,6.02,13.77,16.37,36.18,51.68,46.58" fill="none" stroke="#263238" stroke-linecap="round" stroke-linejoin="round"></path>
      <path d="M439.33,283.24s4.3,5.17,0,27.56c-4.3,22.39,5.17,37.89,5.17,37.89" fill="none" stroke="#263238" stroke-linecap="round" stroke-linejoin="round"></path>
      <path d="M379.9,356.45s-11.2,10.33-12.92,19.8c-1.72,9.47,3.45,18.15,3.45,18.15" fill="none" stroke="#263238" stroke-linecap="round" stroke-linejoin="round"></path>
      <path d="M402.29,421.03s10.34,13.79,23.29,20.68" fill="none" stroke="#263238" stroke-linecap="round" stroke-linejoin="round"></path>
      <path d="M610.53,269.68c-2.71-13.34-9.37-25.56-19.13-35.06-16.32-15.93-45.4-26.29-45.4-26.29,0,0-12.34,14.74-38.24,14.74-3.01,0-6.09-.16-9.18-.4-4.36,6.21-6.38,13.07-3.57,19.92,0,0,1.55,5.19,9.16,7.97,7.61,2.78,13.54-3.98,22.31-.79,8.77,3.18,11.94,11.15,32.61,12.42,20.67,1.27,20.73,.81,25.9,5.57,5.17,4.77,17.97,8.29,25.54,1.93Z" fill="#fff" stroke="#263238" stroke-linecap="round" stroke-linejoin="round"></path>
      <path d="M357.98,228.63s-11.96,30.29-11.96,42.64-4.77,66.92-2.78,84.86c1.99,17.93,17.92,10.36,27.95-.81,10.03-11.16,12.75-23.1,31.46-40.62,18.71-17.52,26.24-24.33,33.8-40.64,7.56-16.3,12.53-29.11,9.05-38.46-3.48-9.35-23.4-27.67-42.11-30.85-18.71-3.18-39.84,3.94-45.42,23.88Z" fill="#fff" stroke="#263238" stroke-linecap="round" stroke-linejoin="round"></path>
      <path d="M445.51,235.6s-17.39,3.25-25.85-3.45c-8.46-6.69-20.09-11.99-22.56-27.5-2.47-15.51-4.92-57.09,5.99-76.83,10.92-19.74,25.03-28.2,25.03-28.2l-20.79-23.46c-3.74-4.14-3.42-10.53,.72-14.28,.83-.75,1.78-1.35,2.8-1.79l.31-.12c3.73-1.37,7.92-.41,10.7,2.44l18.24,18.49c2.21,2.24,5.82,2.26,8.06,.05,.07-.07,.14-.14,.2-.21h0c1.91-2.11,1.98-5.3,.16-7.48l-17.08-20.36c-3.14-3.72-2.67-9.29,1.06-12.43,1.08-.91,2.35-1.54,3.73-1.86h.34c3.72-.67,7.52,.71,9.95,3.6l21.12,24.47c1.36,1.57,3.63,1.96,5.43,.93h0c1.54-.86,2.41-2.55,2.2-4.3l-3.63-31.57c-.62-5.02,2.95-9.59,7.97-10.21,.97-.12,1.94-.08,2.9,.11h.36c3.39,.92,5.96,3.68,6.63,7.13l7.55,38.06s16.91,.36,29.25,42.65c12.34,42.3,2.47,66.61,1.06,73.31-1.41,6.69-46.58,27.14-61.33,37.36-7.11,4.78-13.95,9.94-20.51,15.45Z" fill="#1684A7" stroke="#263238" stroke-miterlimit="10"></path>
      <path d="M374.53,93.04c-3.78,2.05-6.16,5.98-6.21,10.28-.54,13.99-2.58,27.87-6.07,41.43-4.89,20.41-6.67,41.44-5.28,62.37,.36,7.76,1.06,21.51,1.06,21.51,0,0,14.1-11.99,22.2-17.27,8.11-5.28,18.87,2.19,18.87,2.19,0,0-3.4-25.45,1.88-38.09,5.28-12.64,29.61-27.13,39.13-30.31,9.52-3.18,14.1-8.45,11.27-19.02-2.83-10.57-9.52-12.42-13.74-11.29s-11.99,2.83-23.62,4.66-12.69-3.52-13.4-11.97c-.19-2.3-.3-4.41-.36-6.21-.09-6.31-5.09-11.45-11.4-11.72-5-.14-9.94,1.05-14.33,3.45Z" fill="#fff" stroke="#263238" stroke-linecap="round" stroke-linejoin="round"></path>
      <ellipse cx="442.92" cy="128.51" rx="7.05" ry="12.33" transform="translate(-16.24 85.35) rotate(-10.81)" fill="#263238" stroke="#263238" stroke-linecap="round" stroke-linejoin="round"></ellipse>
      <line x1="440.12" y1="80.9" x2="451.59" y2="92.42" fill="none" stroke="#263238" stroke-linecap="round" stroke-linejoin="round"></line>
      <line x1="467.73" y1="66.63" x2="475.89" y2="76.47" fill="none" stroke="#263238" stroke-linecap="round" stroke-linejoin="round"></line>
      <path d="M445.51,235.6s3.91-51.52,34.55-78.77c30.64-27.25,85.82-36.19,92.64-36.3,2.27,0,5.88,6.86,5.88,17.62s8.71,24.41,3.62,26.68c-5.09,2.27-31.92,5.59-40.37,11.26-8.45,5.67-2.27,5.67,2.83,18.63,5.09,12.97,5.67,16.41-2.27,26.04-7.93,9.63-34.55,23.79-54.35,20.96s-22.65-14.16-29.5-11.34c-6.85,2.83-13.03,5.22-13.03,5.22Z" fill="#fff" stroke="#263238" stroke-linecap="round" stroke-linejoin="round"></path>
      <path d="M584.65,141.19c2.62,12.24,1.55,22.84-2.45,23.69s-9.32-8.37-11.94-20.61c-2.62-12.24-1.55-22.84,2.44-23.69s9.33,8.37,11.96,20.61Z" fill="#263238" stroke="#263238" stroke-linecap="round" stroke-linejoin="round"></path>
      <path d="M520.22,204.37c-1.06,2.68-1.9,5.44-2.53,8.25" fill="none" stroke="#263238" stroke-linecap="round" stroke-linejoin="round"></path>
      <path d="M541.78,176.14c-7.42,5.67-13.6,12.8-18.14,20.96" fill="none" stroke="#263238" stroke-linecap="round" stroke-linejoin="round"></path>
      <path d="M491.61,132.71c1.4-1.89,2.92-3.68,4.57-5.36" fill="none" stroke="#263238" stroke-linecap="round" stroke-linejoin="round"></path>
      <path d="M472.06,164.39s6.89-13,14.29-24.21" fill="none" stroke="#263238" stroke-linecap="round" stroke-linejoin="round"></path>
      <path d="M530.35,557.62c-22.79,0-37.95-4.53-45.25-13.54-5.16-6.38-6.21-14.86-2.83-23.88,3.59-9.67,17.24-24.58,40.56-44.3,17.08-14.41,33.31-26.4,33.48-26.4l5.57,7.61c-17.61,12.87-64.64,49.91-70.76,66.41-2.19,5.93-1.75,10.87,1.32,14.67,4.81,5.95,20.95,14.78,74.86,6.96l1.35,9.32c-12.68,1.96-25.48,3.01-38.31,3.15Z" fill="#fff" stroke="#263238" stroke-linecap="round" stroke-linejoin="round"></path>
      <path d="M533.44,534.25c-5.98,0-11.97-.23-17.92-.73-45.12-3.76-67.51-20.82-68.46-52.17l9.44-.3c.53,17.78,7.76,38.73,59.8,43.07,52.03,4.35,110.03-13.6,110.6-13.79l2.81,9.02c-2.17,.68-48.31,14.89-96.27,14.89Z" fill="#fff" stroke="#263238" stroke-linecap="round" stroke-linejoin="round"></path>
      <path d="M562.26,565.54c-7.3,.03-13.24-5.86-13.27-13.16-.03-6.5,4.68-12.06,11.1-13.1,.11,0,11.02-1.86,22.31-4.83,7.06-1.87,14.3,2.34,16.17,9.4,1.87,7.06-2.34,14.3-9.4,16.17-12.5,3.29-24.19,5.25-24.67,5.33-.74,.12-1.49,.19-2.24,.19Z" fill="#263238" stroke="#263238" stroke-linecap="round" stroke-linejoin="round"></path>
      <path d="M453.05,502.05c-5.19,0-9.89-3.04-12.03-7.76-4.24-9.32-4.36-20.7-4.36-21.97,.5-7.29,6.82-12.79,14.1-12.29,6.59,.45,11.84,5.7,12.29,12.29,.03,3.78,.7,7.53,1.99,11.09,2.98,6.68-.03,14.51-6.71,17.49-1.68,.75-3.49,1.14-5.32,1.15l.05,.02Zm10.05-29.74" fill="#263238" stroke="#263238" stroke-linecap="round" stroke-linejoin="round"></path>
      <path d="M689.35,420.19c8.2-14.1,23.51-48.21,10.61-90.17-1.69-5.48-7.5-8.56-12.99-6.87-5.48,1.69-8.56,7.5-6.87,12.99,7.36,24.19,4.49,50.33-7.95,72.34-3.65-1.09-8.35-2.34-13.76-3.48-13.56-2.86-23.63-2.97-44.27,4.15-19.33,6.68-65.48,40.19-70.68,43.99-4.54,3.51-5.37,10.03-1.86,14.57,3.37,4.36,9.57,5.33,14.12,2.2,13.43-9.81,51.32-36.33,65.22-41.12,16.99-5.85,23.45-5.51,33.21-3.46,5.56,1.16,11.05,2.64,16.44,4.44,5.65,6.86,9.44,15.07,10.99,23.82,4.11,26.4-39.35,42.93-62.68,51.78l-4.44,1.69c-5.36,2.05-8.05,8.05-6,13.41,1.54,4.04,5.42,6.7,9.74,6.68,1.27,0,2.54-.24,3.73-.7l4.33-1.66c28.85-10.87,82.54-31.29,75.85-74.39-1.85-10.92-6.21-21.27-12.73-30.22Z" fill="#fff" stroke="#263238" stroke-linecap="round" stroke-linejoin="round"></path>
      <path d="M334.41,420.07l2.38,13.03c36.97-3.88,76.72-12.59,118.58-26.01l-4.04-12.59c-41.38,13.28-80.59,21.83-116.92,25.57Z" fill="#263238" stroke="#263238" stroke-linecap="round" stroke-linejoin="round"></path>
      <circle cx="558.14" cy="357.69" r="55.56" transform="translate(-89.45 499.43) rotate(-45)" fill="#263238" stroke="#263238" stroke-linecap="round" stroke-linejoin="round" stroke-width="1"></circle>
      <circle cx="563.22" cy="357.7" r="55.56" transform="translate(-87.97 503.02) rotate(-45)" fill="#fff" stroke="#263238" stroke-linecap="round" stroke-linejoin="round" stroke-width="1"></circle>
      <path d="M456.24,409.79l-5.76-17.98c33.35-10.59,65.88-23.63,97.31-39.01l8.65,16.75c-1.69,.9-42.1,21.6-100.2,40.23Z" fill="#fff" stroke="#263238" stroke-linecap="round" stroke-linejoin="round"></path>
      <circle cx="558.14" cy="357.69" r="22.5" fill="#263238" stroke="#263238" stroke-linecap="round" stroke-linejoin="round"></circle>
      <circle cx="561.95" cy="357.69" r="22.5" fill="#fff" stroke="#263238" stroke-linecap="round" stroke-linejoin="round"></circle>
    </g>
    <g>
      <path d="M295.05,616.66l.98,9.09s19.82,5.9,39.48,.16v-9.24h-40.47Z" fill="#fff" stroke="#263238" stroke-linecap="round" stroke-linejoin="round"></path>
      <path d="M238.87,605.53l-.68,21.72s-19.44,5.71-38.73,.15l-1.46-26.99,40.87,5.11Z" fill="#fff" stroke="#263238" stroke-linecap="round" stroke-linejoin="round"></path>
      <path d="M191.43,603.71l68.91,9.19c1.33,.18,2.53-.78,2.66-2.11,2.05-22.23,17.47-189.16,17.47-187.78s-.43,169.36-.49,191.3c0,1.3,1.05,2.35,2.36,2.35h54.22c1.32,0,2.38-1.08,2.36-2.39l-3.89-244.34-27.52-41.78-45.22,.98-43.74,84.05-29.12,187.84c-.2,1.31,.71,2.52,2.02,2.7Z" fill="#09A599" stroke="#263238" stroke-linecap="round" stroke-linejoin="round"></path>
      <line x1="229.35" y1="421.04" x2="205.76" y2="600.93" fill="none" stroke="#263238" stroke-linecap="round" stroke-linejoin="round"></line>
      <line x1="333.06" y1="612.73" x2="329.13" y2="424.48" fill="none" stroke="#263238" stroke-linecap="round" stroke-linejoin="round"></line>
      <polygon points="252.18 199.16 262.28 329.13 307.5 328.15 308.98 209.2 299.67 198.4 252.18 199.16" fill="#09A599" stroke="#263238" stroke-linecap="round" stroke-linejoin="round"></polygon>
      <path d="M263.86,177.52l-.89,15.28c-.19,3.2-2.71,5.76-5.91,6l-4.88,.36,14.3,26.55h25.02s8.43-1.79,8.17-15.83v-11.49s-7.4-.26-9.45-6.89v-7.15l4.08-15.83-26.04,3.32-6.13,2.81,1.72,2.87Z" fill="#fff" stroke="#263238" stroke-linecap="round" stroke-linejoin="round"></path>
      <path d="M252.18,199.16s-32.93,3.83-54.64,29.87c0,0-34.72,40.08-19.91,73.53,0,0,13.22,25.26,36.81,40l-16.71,68.81s28.51-1.31,57.67,16.38c0,0,14.75-70.45,12.45-111.74,0,0,1.09-94.46-15.67-116.86Z" fill="#fff" stroke="#263238" stroke-linecap="round" stroke-linejoin="round"></path>
      <path d="M219.69,348.13l8.19,9.83s18.35-15.4,18.35-44.56" fill="none" stroke="#263238" stroke-linecap="round" stroke-linejoin="round"></path>
      <path d="M236.07,316.68s-8.85,19.99-21.63,25.89" fill="none" stroke="#263238" stroke-linecap="round" stroke-linejoin="round"></path>
      <path d="M237.71,313.4s-15.25-13.15-14.42-27.9c.14-2.55,.94-5.02,2.14-7.28,3.56-6.73,13.88-28.2,8.68-42.15" fill="none" stroke="#263238" stroke-linecap="round" stroke-linejoin="round"></path>
      <path d="M209.2,229.84s-19.33,22.28-21.95,57.67" fill="none" stroke="#263238" stroke-linecap="round" stroke-linejoin="round"></path>
      <polyline points="237.05 203.63 239.67 235.41 251.8 234.76 238.36 247.21 261.3 312.74" fill="none" stroke="#263238" stroke-linecap="round" stroke-linejoin="round"></polyline>
      <path d="M299.67,198.4s13.08,113.04-8.55,223.14l48.5-2.62s-3.28-93.06-13.76-133.69c0,0,29.82,28.67,58.33,14.42l54.07-31.46-15.73-33.91-55.54,21.14s-23.59-43.25-50.13-49.15c0,0-2.24,.48-5.18-1.73,0,0-4.84-5.01-12-6.13Z" fill="#fff" stroke="#263238" stroke-linecap="round" stroke-linejoin="round"></path>
      <path d="M321.76,211.17s.98,16.71-.98,26.05h-8.36l9.34,7.37s-3.44,31.95-17.69,78.15" fill="none" stroke="#263238" stroke-linecap="round" stroke-linejoin="round"></path>
      <path d="M332.08,225.42s12.29,15.73,19.17,30.47" fill="none" stroke="#263238" stroke-linecap="round" stroke-linejoin="round"></path>
      <polyline points="331.09 326.67 314.38 326.67 314.38 379.26 332.08 379.26" fill="none" stroke="#263238" stroke-linecap="round" stroke-linejoin="round"></polyline>
      <line x1="330.11" y1="338.96" x2="319.3" y2="338.96" fill="none" stroke="#263238" stroke-linecap="round" stroke-linejoin="round"></line>
      <path d="M385.39,647.98c-12.57,5.39-30.84,7.19-30.84,7.19-45.81,2.69-54.19-9.59-54.19-9.59-3.3-8.38-4.34-19.84-4.34-19.84,22.63,6.22,39.49,.16,39.49,.16,27.67,6.07,49.88,22.08,49.88,22.08Z" fill="#09A599" stroke="#263238" stroke-linecap="round" stroke-linejoin="round"></path>
      <path d="M386.62,653.54c-30.77,13.28-70.55,5.37-80.39,3.08-1.55-.36-2.89-1.39-3.55-2.84-1.71-3.75-2.32-8.2-2.32-8.2,0,0,8.38,12.28,54.19,9.59,0,0,18.27-1.8,30.84-7.19,.74,.43,1.35,.86,1.86,1.28,1.47,1.2,1.11,3.53-.63,4.28Z" fill="#fff" stroke="#263238" stroke-linecap="round" stroke-linejoin="round"></path>
      <path d="M343.78,627.62s-5.99,1.5-8.38,8.38" fill="none" stroke="#263238" stroke-linecap="round" stroke-linejoin="round"></path>
      <path d="M355.45,631.81s-5.99,1.5-8.38,8.38" fill="none" stroke="#263238" stroke-linecap="round" stroke-linejoin="round"></path>
      <path d="M150.55,648.77c12.33,5.22,30.25,6.96,30.25,6.96,44.93,2.61,53.15-9.28,53.15-9.28,3.24-8.11,4.25-19.2,4.25-19.2-22.19,6.02-38.73,.16-38.73,.16-27.14,5.87-48.92,21.36-48.92,21.36Z" fill="#09A599" stroke="#263238" stroke-linecap="round" stroke-linejoin="round"></path>
      <path d="M149.35,654.15c30.18,12.85,69.2,5.2,78.85,2.98,1.52-.35,2.83-1.34,3.48-2.75,1.68-3.62,2.27-7.94,2.27-7.94,0,0-8.22,11.89-53.15,9.28,0,0-17.92-1.74-30.25-6.96-.73,.42-1.33,.83-1.82,1.23-1.44,1.16-1.09,3.42,.62,4.15Z" fill="#fff" stroke="#263238" stroke-linecap="round" stroke-linejoin="round"></path>
      <path d="M191.37,629.07s5.87,1.45,8.22,8.11" fill="none" stroke="#263238" stroke-linecap="round" stroke-linejoin="round"></path>
      <path d="M179.92,633.12s5.87,1.45,8.22,8.11" fill="none" stroke="#263238" stroke-linecap="round" stroke-linejoin="round"></path>
      <path d="M292.32,194.25s13.01,4.66,13.78,28.15" fill="none" stroke="#263238" stroke-linecap="round" stroke-linejoin="round"></path>
      <path d="M286.3,268.45s-2.14-43.69,19.61-45.78c0,0,20.77-2.85,21.75,47.11" fill="none" stroke="#263238" stroke-linecap="round" stroke-linejoin="round"></path>
      <circle cx="286.49" cy="270.36" r="2.91" fill="#263238" stroke="#263238" stroke-miterlimit="10"></circle>
      <circle cx="327.26" cy="271.91" r="2.91" fill="#263238" stroke="#263238" stroke-miterlimit="10"></circle>
      <path d="M262.97,192.81s-9.1-.3-8.32,46.68l2.14,38.05" fill="none" stroke="#263238" stroke-linecap="round" stroke-linejoin="round"></path>
      <ellipse cx="257.5" cy="288.64" rx="7.42" ry="10.83" transform="translate(-40 41.43) rotate(-8.54)" fill="#263238" stroke="#263238" stroke-miterlimit="10"></ellipse>
      <path d="M436.91,164.97c-10.77,11.36-10.29,29.29,1.07,40.05,11.36,10.77,29.29,10.29,40.05-1.07,10.77-11.36,10.29-29.29-1.07-40.05-11.36-10.77-29.29-10.29-40.05,1.07Zm38.83,36.81c-9.56,10.09-25.5,10.51-35.59,.95-10.09-9.56-10.51-25.5-.95-35.59,9.56-10.09,25.5-10.51,35.59-.95,10.09,9.56,10.51,25.5,.95,35.59Z" fill="#09A599" stroke="#263238" stroke-linecap="round" stroke-linejoin="round"></path>
      <g>
        <circle cx="457.47" cy="184.46" r="25.17" transform="translate(-35.47 202.27) rotate(-24.03)" fill="#fff" opacity=".3"></circle>
        <path d="M457.46,210.19c-6.36,0-12.73-2.34-17.71-7.05-4.99-4.73-7.84-11.12-8.02-18-.18-6.87,2.32-13.41,7.05-18.4,9.77-10.3,26.09-10.74,36.4-.97,4.99,4.73,7.84,11.12,8.02,18,.18,6.87-2.32,13.41-7.05,18.4-5.05,5.33-11.87,8.02-18.69,8.02Zm.01-50.32c-6.52,0-13.03,2.57-17.86,7.66-9.33,9.84-8.92,25.44,.93,34.78,9.84,9.33,25.44,8.91,34.77-.93,9.33-9.84,8.92-25.44-.93-34.77-4.75-4.5-10.84-6.74-16.92-6.74Z" fill="#263238"></path>
      </g>
      <rect x="456.17" y="254.85" width="4.35" height="14.47" rx="2.17" ry="2.17" transform="translate(208.59 727.26) rotate(-91.53)" fill="#1684A7" stroke="#263238" stroke-miterlimit="10"></rect>
      <rect x="453.77" y="215.13" width="7.58" height="16.1" transform="translate(-5.79 12.29) rotate(-1.53)" fill="#fff" stroke="#263238" stroke-linecap="round" stroke-linejoin="round"></rect>
      <rect x="452.63" y="220.62" width="10.77" height="39.27" transform="translate(-6.25 12.31) rotate(-1.53)" fill="#09A599" stroke="#263238" stroke-linecap="round" stroke-linejoin="round"></rect>
      <path d="M462.09,248.39s-4.54,3.82-.34,6.35c1.17,.71,2.56,.98,3.93,.93l5.09-.18c1.86-.07,3.6-1.19,4.22-2.95,.57-1.62,.29-3.61-3.06-5.09,0,0,4.37-4.06,0-7.49,0,0,5.46-5.46-1.09-8.27,0,0,5.26-4.49,1.13-7.3-.84-.57-1.84-.85-2.85-.93-4.33-.35-18.19-.94-14.36,6.2,0,0,.78,1.56,4.84,2.65,0,0-6.71,4.37-.31,9.21,0,0-4.06,4.68,2.81,6.87Z" fill="#fff" stroke="#263238" stroke-linecap="round" stroke-linejoin="round"></path>
      <rect x="262.39" y="123.08" width="42.13" height="62.29" rx="21.06" ry="21.06" fill="#fff" stroke="#263238" stroke-linecap="round" stroke-linejoin="round"></rect>
      <path d="M252.18,199.16s-4.08,.51-13.79,3.06c0,0-16.09-13.72,2.07-30.46,1.45-1.34,2.21-3.28,2.12-5.25h0c-.07-1.44-.59-2.81-1.48-3.94-4.1-5.14-14.71-21.31,5.89-30.07,1.06-.45,1.81-1.41,1.95-2.55,.55-4.4,4.23-15.46,27.24-17.09,0,0,29.29-5,29.91,22.49,.04,1.81,1.15,3.42,2.82,4.12,4.11,1.73,11.3,5.49,12.2,10.92,0,0,2.3,6.38-4.6,17.36,0,0-3.98,5.49,.46,10.93,1.06,1.3,2.45,2.31,3.97,3.03,2.47,1.16,7.93,5.12,4.42,16.64-.85,2.78-2.63,5.24-5.16,6.68-2.36,1.34-5.49,2.04-8.55-.51,0,0-4.34-4.6-12-6.13,0,0-8.17-.77-9.45-6.89v-7.15s13.79-4.34,14.3-20.04v-14.15c0-9.89-8.71-17.76-18.49-16.3-.38,.06-.77,.12-1.16,.2,0,0-2.04,18.38-22.47,23.49v6.77l1.47,13.21-.89,15.28s-.26,5.13-5.91,6l-4.88,.36Z" fill="#fff" stroke="#263238" stroke-linecap="round" stroke-linejoin="round"></path>
      <ellipse cx="259.33" cy="169.67" rx="6.89" ry="9.06" transform="translate(-50.09 152.4) rotate(-30)" fill="#fff" stroke="#263238" stroke-linecap="round" stroke-linejoin="round"></ellipse>
      <ellipse cx="259.63" cy="288.06" rx="7.42" ry="10.83" transform="translate(-39.89 41.74) rotate(-8.54)" fill="#09A599" stroke="#263238" stroke-linecap="round" stroke-linejoin="round"></ellipse>
      <path d="M461.16,224.36c-15.29-1.72-35.9,15.14-35.9,15.14l9.21,21.38,18.57-4.53-.47-14.83s.9-2.31,1.58-5.56c.3-1.45,1.33-2.66,2.73-3.11,1.78-.57,4.44-1.72,7.39-3.97,5.31-4.06-3.12-4.53-3.12-4.53Z" fill="#fff" stroke="#263238" stroke-linecap="round" stroke-linejoin="round"></path>
      <path d="M452.57,241.53s-7.02,4.68-15.14,4.99" fill="none" stroke="#263238" stroke-linecap="round" stroke-linejoin="round"></path>
      <line x1="471.93" y1="247.46" x2="462.09" y2="248.39" fill="#fff" stroke="#263238" stroke-linecap="round" stroke-linejoin="round"></line>
      <line x1="471.93" y1="239.97" x2="459.28" y2="241.53" fill="#fff" stroke="#263238" stroke-linecap="round" stroke-linejoin="round"></line>
      <line x1="470.83" y1="231.69" x2="459.6" y2="232.32" fill="#fff" stroke="#263238" stroke-linecap="round" stroke-linejoin="round"></line>
      <rect x="454.82" y="208.98" width="4.97" height="12.77" rx="2.48" ry="2.48" transform="translate(254.23 678.26) rotate(-91.53)" fill="#1684A7" stroke="#263238" stroke-miterlimit="10"></rect>
    </g>
    <ellipse cx="281.52" cy="157.35" rx="1.35" ry="2.13" fill="#263238" stroke="#263238" stroke-miterlimit="10"></ellipse>
    <ellipse cx="295.71" cy="154.19" rx="1.35" ry="2.13" fill="#263238" stroke="#263238" stroke-miterlimit="10"></ellipse>
    <path d="M292.28,147.7s2.75-3.25,6.62-.87" fill="none" stroke="#263238" stroke-linecap="round" stroke-linejoin="round"></path>
    <path d="M284.54,148.83s-5.87-2.37-9.49,2.37" fill="none" stroke="#263238" stroke-linecap="round" stroke-linejoin="round"></path>
    <path d="M290.78,152.57l.6,5.85c.02,.17,.08,.34,.17,.49l1.72,2.68c.23,.36,.24,.82,.01,1.19l-1.63,2.65" fill="none" stroke="#263238" stroke-linecap="round" stroke-linejoin="round"></path>
    <path d="M294.47,169.3c-1.64,.48-7.61,2.12-11.77,2.03-.18,0-.3,.18-.22,.35,1.16,2.14,7.44,12.54,12.28-2.06,.06-.18-.1-.36-.29-.31Z" fill="#fff" stroke="#263238" stroke-miterlimit="10"></path>
  </g>
  <line x1="257.83" y1="167.91" x2="261.3" y2="172.01" fill="none" stroke="#263238" stroke-linecap="round" stroke-linejoin="round"></line>
  <path d="M284.86,134.06s-4.79-1.06-13.57,6.44" fill="#fff" stroke="#263238" stroke-linecap="round" stroke-linejoin="round"></path>
  <path d="M243.16,140.18s-5.88,6.69,0,17.17" fill="#fff" stroke="#263238" stroke-linecap="round" stroke-linejoin="round"></path>
  <path d="M241.86,201.39s-11.9-8.29-1.31-24.13" fill="none" stroke="#263238" stroke-linecap="round" stroke-linejoin="round"></path>
  <path d="M278.07,114.47s18.14-1.67,23.87,11.28" fill="#fff" stroke="#263238" stroke-linecap="round" stroke-linejoin="round"></path>
</svg>
